<svg width="43" height="48" viewBox="0 0 43 48" fill="none" xmlns="http://www.w3.org/2000/svg">
<path d="M26.6378 19.1859L5.56108 45.3205C5.23707 45.7144 4.7423 45.9577 4.16553 46.0034C3.47987 46.0586 2.77538 45.83 2.28331 45.3931C1.78856 44.9548 1.478 44.2839 1.44977 43.5955C1.42691 43.0174 1.60842 42.4971 1.95663 42.1341L25.3821 18.0686C26.4321 16.9823 26.9847 15.494 26.9 13.9856L26.7387 11.1542C26.6822 9.56644 27.3369 8.05659 28.5335 7.01062L31.5316 4.38896C33.8588 2.35482 36.8421 1.31563 39.929 1.46218C40.2799 1.47831 40.6187 1.61674 40.8822 1.85067C41.1457 2.08461 41.3232 2.4033 41.3823 2.75016C41.8986 5.798 41.2237 8.88338 39.4826 11.4378L37.2401 14.7291C36.3447 16.0426 34.925 16.8721 33.3426 17.0092L30.5125 17.1867C29.0041 17.2835 27.5924 18.0109 26.6378 19.1859ZM30.6039 18.6333L33.4407 18.4532L33.4569 18.4519C35.4789 18.2811 37.2939 17.2216 38.4366 15.5437L40.6805 12.2526C42.6327 9.38762 43.3896 5.92697 42.8101 2.50806C42.6958 1.83718 42.3517 1.21884 41.8421 0.767114C41.3326 0.31538 40.6792 0.0490733 39.9975 0.015459C36.5329 -0.149905 33.1893 1.01719 30.5784 3.2987L27.5803 5.92036C26.053 7.25673 25.2181 9.18599 25.2907 11.2148L25.2921 11.2295L25.4534 14.0676C25.5166 15.1741 25.1106 16.2657 24.3429 17.0603L0.914684 41.1285C0.288175 41.7819 -0.0358386 42.6787 0.00315016 43.6547C0.0475167 44.7276 0.539589 45.7829 1.32205 46.4766C2.02788 47.1018 2.99856 47.4595 3.96925 47.4595L4.28117 47.446C5.25454 47.368 6.1069 46.9391 6.68366 46.2346L27.7631 20.0961C28.4622 19.2356 29.4975 18.7032 30.6039 18.6333Z" fill="#F0374A"/>
</svg>
