<svg width="26" height="26" viewBox="0 0 26 26" fill="none" xmlns="http://www.w3.org/2000/svg">
<path d="M7.80721 26C7.09155 26 6.47912 25.7456 5.96992 25.2369C5.45984 24.7273 5.20481 24.115 5.20481 23.4C5.20481 22.685 5.45984 22.0727 5.96992 21.5631C6.47912 21.0544 7.09155 20.8 7.80721 20.8C8.52287 20.8 9.13531 21.0544 9.64451 21.5631C10.1546 22.0727 10.4096 22.685 10.4096 23.4C10.4096 24.115 10.1546 24.7273 9.64451 25.2369C9.13531 25.7456 8.52287 26 7.80721 26ZM20.8192 26C20.1036 26 19.4911 25.7456 18.9819 25.2369C18.4719 24.7273 18.2168 24.115 18.2168 23.4C18.2168 22.685 18.4719 22.0727 18.9819 21.5631C19.4911 21.0544 20.1036 20.8 20.8192 20.8C21.5349 20.8 22.1478 21.0544 22.6578 21.5631C23.167 22.0727 23.4216 22.685 23.4216 23.4C23.4216 24.115 23.167 24.7273 22.6578 25.2369C22.1478 25.7456 21.5349 26 20.8192 26ZM6.70119 5.2L9.82408 11.7H18.9325L22.5108 5.2H6.70119ZM5.46505 2.6H24.6578C25.1566 2.6 25.5361 2.82187 25.7963 3.2656C26.0566 3.7102 26.0674 4.16 25.8289 4.615L21.2096 12.935C20.971 13.3683 20.6509 13.7042 20.2493 13.9425C19.8485 14.1808 19.4096 14.3 18.9325 14.3H9.23854L7.80721 16.9H23.4216V19.5H7.80721C6.83131 19.5 6.09396 19.0719 5.59517 18.2156C5.09638 17.3602 5.07469 16.51 5.53011 15.665L7.28673 12.48L2.6024 2.6H0V0H4.22891L5.46505 2.6Z" fill="black"/>
</svg>
