<svg width="33" height="33" viewBox="0 0 33 33" fill="none" xmlns="http://www.w3.org/2000/svg">
<path d="M27.0925 32.9928H5.90754C2.65069 32.9928 0 30.3452 0 27.0904V5.90133C0 2.64756 2.65069 7.67019e-06 5.90754 7.67019e-06H27.0925C30.3494 7.67019e-06 33 2.64756 33 5.90133V27.0904C33 30.3452 30.3494 32.9928 27.0925 32.9928ZM5.90754 1.9335C3.71918 1.9335 1.93149 3.71399 1.93149 5.90133V27.0904C1.93149 29.2788 3.71918 31.0602 5.90754 31.0602H27.0925C29.2809 31.0602 31.0582 29.2788 31.0582 27.0904V5.90133C31.0582 3.71399 29.2809 1.9335 27.0925 1.9335H5.90754Z" fill="#82838D"/>
<path d="M10.5104 9.57737C9.92482 9.57737 9.45224 9.0996 9.45224 8.51295C9.45224 7.92631 9.92482 7.44863 10.5104 7.44863C11.0961 7.44863 11.579 7.92631 11.579 8.51295C11.579 9.0996 11.0961 9.57737 10.5104 9.57737ZM27.4728 7.58117H13.2844C12.894 6.42227 11.805 5.58487 10.5104 5.58487C9.22619 5.58487 8.12688 6.42227 7.73646 7.58117H5.51733C5.00363 7.58117 4.59267 7.99823 4.59267 8.51295C4.59267 9.02768 5.00363 9.44484 5.51733 9.44484H7.73646C8.12688 10.6027 9.22619 11.44 10.5104 11.44C11.805 11.44 12.894 10.6027 13.2844 9.44484H27.4728C27.9865 9.44484 28.4077 9.02768 28.4077 8.51295C28.4077 7.99823 27.9865 7.58117 27.4728 7.58117Z" fill="white"/>
<path d="M22.49 17.5613C21.9043 17.5613 21.4214 17.0835 21.4214 16.4969C21.4214 15.9092 21.9043 15.4315 22.49 15.4315C23.0756 15.4315 23.5482 15.9092 23.5482 16.4969C23.5482 17.0835 23.0756 17.5613 22.49 17.5613ZM27.4728 15.5651H25.2639C24.8735 14.4062 23.7742 13.5688 22.49 13.5688C21.1954 13.5688 20.1064 14.4062 19.716 15.5651H5.51733C5.00363 15.5651 4.59267 15.9821 4.59267 16.4969C4.59267 17.0116 5.00363 17.4277 5.51733 17.4277H19.716C20.1064 18.5866 21.1954 19.4239 22.49 19.4239C23.7742 19.4239 24.8735 18.5866 25.2639 17.4277H27.4728C27.9865 17.4277 28.4077 17.0116 28.4077 16.4969C28.4077 15.9821 27.9865 15.5651 27.4728 15.5651Z" fill="white"/>
<path d="M14.5071 25.5442C13.9214 25.5442 13.4385 25.0665 13.4385 24.4809C13.4385 23.8932 13.9214 23.4154 14.5071 23.4154C15.0927 23.4154 15.5653 23.8931 15.5653 24.4798C15.5653 25.0664 15.0927 25.5442 14.5071 25.5442ZM27.4728 23.548H17.281C16.8906 22.3901 15.7913 21.5528 14.5071 21.5528C13.2125 21.5528 12.1235 22.3901 11.7331 23.548H5.51733C5.00363 23.548 4.59267 23.9661 4.59267 24.4798C4.59267 24.9945 5.00363 25.4116 5.51733 25.4116H11.7331C12.1235 26.5705 13.2125 27.4078 14.5071 27.4078C15.7913 27.4078 16.8906 26.5705 17.281 25.4116H27.4728C27.9865 25.4116 28.4077 24.9945 28.4077 24.4798C28.4077 23.9661 27.9865 23.548 27.4728 23.548Z" fill="white"/>
</svg>
