<svg width="286" height="39" viewBox="0 0 286 39" fill="none" xmlns="http://www.w3.org/2000/svg">
<path d="M263.125 39H22.8752C10.2951 39 0 30.2255 0 19.5005C0 8.77537 10.2951 0 22.8752 0H263.125C275.705 0 286 8.77537 286 19.5005C286 30.2255 275.705 39 263.125 39Z" fill="#F2F2F2"/>
<path d="M20 31C19.45 31 18.9793 30.8043 18.588 30.413C18.196 30.021 18 29.55 18 29V11C18 10.45 18.196 9.979 18.588 9.587C18.9793 9.19567 19.45 9 20 9H30C30.55 9 31.021 9.19567 31.413 9.587C31.8043 9.979 32 10.45 32 11V29C32 29.55 31.8043 30.021 31.413 30.413C31.021 30.8043 30.55 31 30 31H20ZM25 28.5C25.2833 28.5 25.521 28.404 25.713 28.212C25.9043 28.0207 26 27.7833 26 27.5C26 27.2167 25.9043 26.9793 25.713 26.788C25.521 26.596 25.2833 26.5 25 26.5C24.7167 26.5 24.4793 26.596 24.288 26.788C24.096 26.9793 24 27.2167 24 27.5C24 27.7833 24.096 28.0207 24.288 28.212C24.4793 28.404 24.7167 28.5 25 28.5ZM20 24H30V14H20V24Z" fill="#CCCCCC"/>
</svg>
