<svg width="21" height="21" viewBox="0 0 21 21" fill="none" xmlns="http://www.w3.org/2000/svg">
<path d="M19.6237 14.4892L3.92271 0.188425C3.62842 -0.0803362 3.17017 -0.0588888 2.90141 0.235405C2.63264 0.531043 2.65281 0.989329 2.94845 1.25809L18.6455 15.5548C19.0191 15.9002 19.23 16.4095 19.2421 16.9873C19.2556 17.6754 18.9854 18.3634 18.5191 18.8297C18.0542 19.2947 17.3662 19.5661 16.6781 19.5513C16.1003 19.5406 15.591 19.3282 15.2497 18.9587L1.25793 3.59899C0.98917 3.30336 0.530951 3.28191 0.236657 3.55201C-0.058981 3.82078 -0.0804963 4.27896 0.188265 4.57326L14.1827 19.937C14.7968 20.6036 15.673 20.9799 16.6486 20.9987L16.7252 21C17.7734 21 18.8215 20.574 19.5431 19.8537C20.2809 19.1146 20.7096 18.0328 20.6881 16.9591C20.6693 15.9835 20.293 15.1074 19.6237 14.4892Z" fill="#F0374A"/>
</svg>
