<svg width="24" height="24" viewBox="0 0 24 24" fill="none" xmlns="http://www.w3.org/2000/svg">
<path d="M8.82929 19.2694C10.0415 20.3851 11.6151 21.0212 13.2622 21.0606H13.2771L16.1513 21.07C17.2711 21.0727 18.3474 21.5484 19.1043 22.3719L20.3695 23.7622C20.5149 23.9212 20.7119 24 20.9117 24C21.0857 24 21.2623 23.9388 21.4023 23.8097C21.7026 23.5379 21.7244 23.0759 21.4512 22.7769L20.1833 21.3853C19.1505 20.2601 17.6828 19.6119 16.1554 19.6065L13.2893 19.5969C12.016 19.5643 10.7984 19.0766 9.8553 18.2231L1.52629 8.32177L1.54122 7.9807L1.72061 7.90732L1.89864 7.9807L9.47887 15.5623C10.229 16.3111 11.448 16.3111 12.1968 15.5623L13.0882 14.6707L14.6701 13.089L15.5615 12.1976C16.3103 11.4488 16.3103 10.2298 15.5615 9.47966L7.9813 1.89807V1.54201L8.3224 1.52702L18.2237 9.8547C19.0771 10.7992 19.565 12.0167 19.5976 13.29L19.6058 16.1562C19.6112 17.6836 20.2594 19.1512 21.3873 20.1854L22.7436 21.4221C23.0425 21.6939 23.5046 21.6721 23.7764 21.3731C24.0495 21.0742 24.0278 20.6108 23.7288 20.3404L22.3753 19.105C21.5491 18.3481 21.0734 17.2705 21.0693 16.1521L21.0598 13.2765V13.2615C21.0204 11.6145 20.3844 10.0422 19.2687 8.83005L19.2021 8.76622L9.26414 0.405881C8.57652 -0.171674 7.5804 -0.128156 6.94577 0.506475C6.27716 1.17644 6.27716 2.26351 6.94577 2.93348L14.5274 10.5151C14.7054 10.6931 14.7054 10.984 14.5274 11.1634L14.1536 11.5371L5.7037 3.08716C5.41832 2.80177 4.9549 2.80177 4.66952 3.08716C4.38414 3.37253 4.38414 3.83718 4.66952 4.12256L13.1195 12.5713L12.5718 13.1188L4.12186 4.66893C3.83648 4.38354 3.3731 4.38354 3.08772 4.66893C2.80098 4.9543 2.80098 5.41908 3.08772 5.70446L11.5363 14.153L11.1626 14.5268C10.9846 14.7061 10.6938 14.7061 10.5144 14.5268L2.93278 6.94649C2.60935 6.62171 2.17721 6.44366 1.72061 6.44366C1.26128 6.44366 0.830503 6.62171 0.505713 6.94649C-0.128917 7.58112 -0.171041 8.57731 0.406513 9.26494L8.76678 19.2015L8.82929 19.2694Z" fill="#F0374A"/>
</svg>
